<?xml version="1.0" encoding="UTF-8"?>
<svg id="Layer_1" data-name="Layer 1" xmlns="http://www.w3.org/2000/svg" viewBox="0 0 2179.21 542.63">
  <defs>
    <style>
      .cls-1 {
        fill: #fff;
      }
    </style>
  </defs>
  <g>
    <path class="cls-1" d="m791.21,506.35h20.26v2.79c0,18.08-9.83,22.81-20.51,22.81-14.56,0-21.24-13.35-21.24-35.07,0-22.81,7.04-34.7,21.24-34.7,12.62,0,17.23,7.89,18.93,18.08h11.89c-2.79-18.08-13.59-28.76-30.22-28.76-22.33,0-33.73,18.2-33.73,45.38s9.83,45.75,32.64,45.75c10.68,0,17.11-3.52,22.33-12.62l.49,11.04h8.74v-45.63h-30.82v10.92Z"/>
    <path class="cls-1" d="m934.52,453.08l-28.88,87.97h12.38l5.82-18.81h33.61l5.95,18.81h12.38l-28.88-87.97h-12.38Zm-7.28,58.36l13.47-42.95,13.35,42.95h-26.82Z"/>
    <polygon class="cls-1" points="1090.7 498.1 1078.56 453.08 1060.48 453.08 1060.48 541.06 1072.01 541.06 1072.01 464.37 1084.87 510.72 1096.52 510.72 1109.38 464.37 1109.38 541.06 1120.91 541.06 1120.91 453.08 1102.83 453.08 1090.7 498.1"/>
    <polygon class="cls-1" points="1215.08 541.06 1267.5 541.06 1267.5 530.14 1226.61 530.14 1226.61 501.14 1265.08 501.14 1265.08 490.21 1226.61 490.21 1226.61 464.01 1267.5 464.01 1267.5 453.08 1215.08 453.08 1215.08 541.06"/>
    <path class="cls-1" d="m1394.8,490.34l-8.74-1.94c-7.16-1.58-12.74-5.34-12.74-13.11,0-9.1,8.37-13.11,16.38-13.11s17.11,3.52,18.44,14.08h11.41c-1.94-17.47-15.66-24.76-29.24-24.76-15.77,0-28.88,8.98-28.88,24.15,0,14.08,10.56,21.36,22.21,23.91l9.59,2.31c9.71,2.31,16.5,6.19,16.5,15.41,0,10.19-8.98,14.68-17.72,14.68-11.29,0-19.42-6.55-20.75-18.33h-11.41c.97,17.47,13.83,29,31.79,29,16.99,0,29.73-9.71,29.73-26.21s-12.5-22.94-26.57-26.09Z"/>
  </g>
  <g>
    <path class="cls-1" d="m368.9,34.37l-60.35,215.79L226.29,4.1h-33.8l9.99,29.93c.06.11.11.23.14.34l3.59,10.83-70.21,207.22L65.91,34.37l17.99-30.27H0l37.26,30.27,74.49,230.44h40.51l52.82-158c4.58-13.49,7.95-24.98,10.16-34.46l63.91,192.45h44.95l64.9-230.44,35.81-30.27h-76.95l21.06,30.27Z"/>
    <polygon class="cls-1" points="561.89 4.09 528.33 4.09 509.5 4.09 475.53 4.09 505 34.37 505 234.48 475.53 264.81 509.5 264.81 528.33 264.81 561.89 264.81 533.24 234.48 533.24 34.37 561.89 4.09"/>
    <path class="cls-1" d="m962.58,4.09h-88.82l27.83,30.27v200.11l-27.83,30.33h88.82c39.56,0,70.67-11.11,93.32-33.36,22.65-22.24,33.97-54.64,33.97-97.21s-11.33-74.55-33.97-96.8c-22.65-22.24-53.76-33.36-93.32-33.36Zm69.58,214.88c-18.56,19.1-44.2,28.65-76.95,28.65h-25.37V21.28h25.37c32.74,0,58.39,9.55,76.95,28.65,18.55,19.1,27.83,47.21,27.83,84.31s-9.28,65.63-27.83,84.72Z"/>
    <path class="cls-1" d="m1284.1,121.15l-58.12-21.28c-10.92-3.82-18.83-9-23.74-15.55-4.91-6.55-7.37-14.05-7.37-22.51,0-14.18,5.11-25.71,15.35-34.59,10.23-8.86,25.03-13.3,44.41-13.3,22.37,0,39.77,6.96,52.19,20.87,12.41,13.92,20.67,34.93,24.76,63.03h5.32l-3.28-70.4c-9.82-9-21.49-15.82-34.99-20.47-13.51-4.63-28.18-6.96-44-6.96-19.38,0-35.75,3.21-49.11,9.62-13.37,6.41-23.19,14.6-29.47,24.56-6.28,9.96-9.41,20.81-9.41,32.54,0,16.37,4.02,29.26,12.07,38.68,8.05,9.41,20.26,16.99,36.63,22.72l58.53,20.87c14.46,4.91,25.03,11.66,31.72,20.26,6.68,8.6,10.03,19.17,10.03,31.72,0,15.29-5.32,27.77-15.96,37.45-10.64,9.69-25.65,14.53-45.02,14.53-17.74,0-33.29-4.43-46.66-13.3-13.37-8.86-23.67-21.35-30.9-37.45-7.23-16.1-11.25-34.79-12.07-56.07h-5.32v79.81c8.19,12.01,20.12,21.97,35.81,29.88,15.69,7.92,34.99,11.87,57.91,11.87,27.28,0,49.25-5.59,65.9-16.78,16.64-11.18,24.97-30.7,24.97-58.53,0-18.55-4.91-33.21-14.73-44-9.82-10.77-24.97-19.85-45.43-27.22Z"/>
    <polygon class="cls-1" points="1442.5 234.48 1442.5 136.18 1442.45 136.18 1442.45 118.03 1442.5 118.03 1442.5 34.35 1414.66 4.09 1447 4.09 1465.01 4.09 1470.74 4.09 1470.74 4.09 1546.16 4.09 1608.82 4.09 1612.1 15.55 1623.56 53.65 1617.42 55.29 1592.71 25.3 1470.74 25.3 1470.74 118.03 1588.3 118.03 1588.3 136.18 1470.74 136.18 1470.74 243.6 1592.71 243.6 1617.42 213.61 1623.56 215.25 1612.1 253.35 1608.82 264.81 1565.96 264.81 1470.74 264.81 1470.74 264.81 1466.24 264.81 1447 264.81 1414.66 264.81 1442.5 234.48"/>
    <polygon class="cls-1" points="665.84 34.35 665.84 234.48 638.01 264.81 670.35 264.81 677.25 264.81 677.25 264.81 775.31 264.81 818.17 264.81 821.44 253.35 832.9 212.42 826.76 210.78 802.05 240.77 694.08 240.77 694.08 34.37 721.51 4.09 689.58 4.09 670.35 4.09 638.01 4.09 665.84 34.35"/>
    <polygon class="cls-1" points="1688.88 264.81 1883.05 264.81 1886.32 256.17 1897.79 215.26 1891.64 213.61 1866.92 243.59 1744.95 243.59 1744.95 136.19 1862.52 136.19 1862.52 118.03 1744.95 118.03 1744.95 25.31 1866.92 25.31 1891.64 55.29 1897.79 53.64 1886.32 15.55 1883.05 4.09 1688.88 4.09 1716.71 34.35 1716.71 118.03 1716.66 118.03 1716.66 136.19 1716.71 136.19 1716.71 234.48 1688.88 264.81"/>
    <path class="cls-1" d="m2145.24,37.45c-22.65-22.24-53.76-33.36-93.32-33.36h-88.82l27.83,30.27v200.11l-27.83,30.33h88.82c39.56,0,70.67-11.11,93.32-33.36,22.64-22.24,33.97-54.64,33.97-97.21s-11.33-74.55-33.97-96.8Zm-23.74,181.52c-18.56,19.1-44.2,28.65-76.95,28.65h-25.37V21.28h25.37c32.74,0,58.39,9.55,76.95,28.65,18.55,19.1,27.83,47.21,27.83,84.31s-9.28,65.63-27.83,84.72Z"/>
  </g>
</svg>