<svg width="77" height="79" viewBox="0 0 77 79" fill="none" xmlns="http://www.w3.org/2000/svg">
<g filter="url(#filter0_d_90_1661)">
<circle cx="38.9086" cy="36.9085" r="34.5" transform="rotate(5.30269 38.9086 36.9085)" fill="#5865F2" stroke="white" stroke-width="3"/>
<circle cx="38.9085" cy="36.9085" r="24.5" transform="rotate(5.30269 38.9085 36.9085)" stroke="white"/>
<path d="M49.9787 27.828C48.1879 26.7988 46.2689 26.0063 44.2715 25.4752C43.9476 25.9467 43.6493 26.4341 43.3769 26.9352C41.2456 26.4098 39.0484 26.2058 36.8568 26.33C36.6812 25.7873 36.4778 25.2534 36.2462 24.7304C34.1847 24.8892 32.1504 25.3148 30.1985 25.9967C25.9698 31.1526 24.464 36.4234 24.4771 41.7584C26.505 43.5686 28.8282 45.02 31.3469 46.0444C32.002 45.3146 32.5967 44.5294 33.1211 43.6992C32.308 43.3075 31.5312 42.8423 30.7986 42.3135C31.0161 42.1845 31.2296 42.0507 31.436 41.9208C35.7993 44.49 41.0808 44.9802 45.8425 43.2579C46.0226 43.435 46.2078 43.6059 46.3967 43.7612C45.5791 44.1484 44.7278 44.4602 43.8541 44.6977C44.2167 45.6101 44.6548 46.4889 45.1666 47.3271C47.8328 46.7862 50.3855 45.7896 52.7121 44.3812C53.8726 38.3035 52.7644 32.8398 49.9787 27.828ZM34.1661 39.3774C32.7617 39.2471 31.7198 37.8649 31.8653 36.297C32.0108 34.7292 33.2501 33.5475 34.6903 33.6811C36.1305 33.8148 37.1624 35.2073 36.9922 36.7729C36.8221 38.3385 35.5973 39.5102 34.1661 39.3774ZM43.6271 40.2555C42.2205 40.125 41.183 38.7432 41.3285 37.1754C41.474 35.6075 42.7133 34.4258 44.1557 34.5597C45.5982 34.6935 46.6212 36.0852 46.451 37.6508C46.2808 39.2164 45.0583 40.3884 43.6271 40.2555Z" fill="white"/>
</g>
<defs>
<filter id="filter0_d_90_1661" x="0.90625" y="0.906128" width="76.0046" height="78.0048" filterUnits="userSpaceOnUse" color-interpolation-filters="sRGB">
<feFlood flood-opacity="0" result="BackgroundImageFix"/>
<feColorMatrix in="SourceAlpha" type="matrix" values="0 0 0 0 0 0 0 0 0 0 0 0 0 0 0 0 0 0 127 0" result="hardAlpha"/>
<feOffset dy="4"/>
<feGaussianBlur stdDeviation="1"/>
<feComposite in2="hardAlpha" operator="out"/>
<feColorMatrix type="matrix" values="0 0 0 0 0 0 0 0 0 0 0 0 0 0 0 0 0 0 0.25 0"/>
<feBlend mode="normal" in2="BackgroundImageFix" result="effect1_dropShadow_90_1661"/>
<feBlend mode="normal" in="SourceGraphic" in2="effect1_dropShadow_90_1661" result="shape"/>
</filter>
</defs>
</svg>
